G04 ===== Begin FILE IDENTIFICATION =====*
G04 File Format:  Gerber RS274X*
G04 ===== End FILE IDENTIFICATION =====*
%FSLAX33Y33*%
%MOMM*%
%SFA1.0000B1.0000*%
%OFA0.0B0.0*%
%ADD10C,0.025000*%
%LNsilk_screen*%
%IPPOS*%
%LPD*%
G75*
G36*
G01X21425Y-21950D02*
G01X21871Y-21911D01*
G01X21924Y-22155D01*
G01X22019Y-22352D01*
G01X22167Y-22507D01*
G01X22379Y-22630D01*
G01X22639Y-22710D01*
G01X22929Y-22736D01*
G01X23184Y-22716D01*
G01X23407Y-22656D01*
G01X23588Y-22560D01*
G01X23716Y-22435D01*
G01X23817Y-22128D01*
G01X23720Y-21834D01*
G01X23397Y-21623D01*
G01X23166Y-21551D01*
G01X22760Y-21448D01*
G01X22532Y-21390D01*
G01X22341Y-21333D01*
G01X22069Y-21225D01*
G01X21845Y-21075D01*
G01X21687Y-20892D01*
G01X21593Y-20681D01*
G01X21561Y-20446D01*
G01X21600Y-20184D01*
G01X21715Y-19940D01*
G01X21904Y-19732D01*
G01X22164Y-19582D01*
G01X22476Y-19490D01*
G01X22821Y-19460D01*
G01X23196Y-19492D01*
G01X23523Y-19588D01*
G01X23792Y-19746D01*
G01X23991Y-19965D01*
G01X24116Y-20231D01*
G01X24166Y-20529D01*
G01X23712Y-20563D01*
G01X23632Y-20266D01*
G01X23464Y-20051D01*
G01X23203Y-19921D01*
G01X22841Y-19877D01*
G01X22469Y-19917D01*
G01X22214Y-20035D01*
G01X22067Y-20208D01*
G01X22018Y-20414D01*
G01X22157Y-20732D01*
G01X22404Y-20858D01*
G01X22610Y-20922D01*
G01X22871Y-20987D01*
G01X23663Y-21215D01*
G01X23935Y-21379D01*
G01X24125Y-21580D01*
G01X24236Y-21818D01*
G01X24274Y-22089D01*
G01X24233Y-22367D01*
G01X24110Y-22628D01*
G01X23911Y-22852D01*
G01X23640Y-23021D01*
G01X23315Y-23126D01*
G01X22950Y-23161D01*
G01X22504Y-23126D01*
G01X22136Y-23019D01*
G01X21843Y-22842D01*
G01X21621Y-22593D01*
G01X21479Y-22290D01*
G01X21425Y-21950D01*
G37*
G36*
G01X25225Y-21254D02*
G01X25259Y-20779D01*
G01X25350Y-20427D01*
G01X25491Y-20171D01*
G01X25677Y-19985D01*
G01X26045Y-19868D01*
G01X26286Y-19915D01*
G01X26485Y-20056D01*
G01X26580Y-20208D01*
G01X26651Y-20432D01*
G01X27088Y-20397D01*
G01X26980Y-20025D01*
G01X26886Y-19873D01*
G01X26764Y-19743D01*
G01X26456Y-19565D01*
G01X26072Y-19506D01*
G01X25171Y-19916D01*
G01X24788Y-21425D01*
G01X25135Y-22757D01*
G01X26031Y-23161D01*
G01X26336Y-23123D01*
G01X26607Y-23007D01*
G01X26834Y-22820D01*
G01X27006Y-22564D01*
G01X27115Y-22263D01*
G01X27151Y-21938D01*
G01X26842Y-21102D01*
G01X26094Y-20778D01*
G01X26006Y-20789D01*
G01Y-21166D01*
G01X26281Y-21220D01*
G01X26504Y-21380D01*
G01X26653Y-21633D01*
G01X26702Y-21965D01*
G01X26652Y-22310D01*
G01X26502Y-22575D01*
G01X26282Y-22744D01*
G01X26023Y-22800D01*
G01X25837Y-22773D01*
G01X25660Y-22691D01*
G01X25505Y-22558D01*
G01X25390Y-22375D01*
G01X25293Y-21940D01*
G01X25345Y-21627D01*
G01X25501Y-21380D01*
G01X25731Y-21220D01*
G01X26006Y-21166D01*
G01Y-20789D01*
G01X25848Y-20808D01*
G01X25613Y-20895D01*
G01X25401Y-21044D01*
G01X25225Y-21254D01*
G37*
G36*
G01X27559Y-22026D02*
G01Y-21584D01*
G01X28909D01*
G01Y-22026D01*
G01X27559D01*
G37*
G36*
G01X29386Y-23100D02*
G01X29859D01*
G01Y-21645D01*
G01X30777D01*
G01X31827Y-21329D01*
G01X32118Y-20556D01*
G01X32091Y-20301D01*
G01X32009Y-20068D01*
G01X31883Y-19870D01*
G01X31722Y-19722D01*
G01X31523Y-19619D01*
G01X31280Y-19555D01*
G01X31050Y-19529D01*
G01X30736Y-19521D01*
G01X29859D01*
G01Y-19943D01*
G01X30775D01*
G01X31217Y-19975D01*
G01X31384Y-20053D01*
G01X31516Y-20186D01*
G01X31629Y-20571D01*
G01X31581Y-20846D01*
G01X31437Y-21052D01*
G01X31177Y-21180D01*
G01X30785Y-21223D01*
G01X29859D01*
G01Y-19943D01*
G01Y-19521D01*
G01X29386D01*
G01Y-23100D01*
G37*
G36*
G01X32610Y-22155D02*
G01X33049Y-22097D01*
G01X33152Y-22418D01*
G01X33307Y-22635D01*
G01X33509Y-22759D01*
G01X33750Y-22800D01*
G01X34036Y-22746D01*
G01X34274Y-22585D01*
G01X34434Y-22344D01*
G01X34487Y-22053D01*
G01X34438Y-21776D01*
G01X34290Y-21553D01*
G01X34065Y-21406D01*
G01X33787Y-21357D01*
G01X33477Y-21406D01*
G01X33525Y-21020D01*
G01X33596Y-21025D01*
G01X33863Y-20988D01*
G01X34102Y-20878D01*
G01X34270Y-20692D01*
G01X34326Y-20427D01*
G01X34285Y-20206D01*
G01X34163Y-20026D01*
G01X33975Y-19907D01*
G01X33740Y-19868D01*
G01X33505Y-19908D01*
G01X33313Y-20029D01*
G01X33173Y-20230D01*
G01X33093Y-20512D01*
G01X32654Y-20434D01*
G01X33020Y-19749D01*
G01X33172Y-19643D01*
G01X33341Y-19567D01*
G01X33731Y-19506D01*
G01X34012Y-19538D01*
G01X34270Y-19632D01*
G01X34488Y-19781D01*
G01X34647Y-19975D01*
G01X34745Y-20199D01*
G01X34778Y-20436D01*
G01X34653Y-20859D01*
G01X34499Y-21030D01*
G01X34285Y-21162D01*
G01X34567Y-21274D01*
G01X34778Y-21465D01*
G01X34910Y-21725D01*
G01X34954Y-22043D01*
G01X34612Y-22838D01*
G01X33748Y-23163D01*
G01X32965Y-22883D01*
G01X32610Y-22155D01*
G37*
M02*

